<svg width="258" height="654" viewBox="0 0 258 654" fill="none" xmlns="http://www.w3.org/2000/svg">
<rect width="55" height="277" fill="white"/>
<mask id="path-2-inside-1_0_1" fill="white">
<path d="M55 277L0 356L0 277H55Z"/>
</mask>
<path d="M0 356H-100V674.655L82.0693 413.137L0 356ZM55 277L137.069 334.137L246.468 177H55V277ZM0 277L0 177H-100V277H0ZM82.0693 413.137L137.069 334.137L-27.0693 219.863L-82.0693 298.863L82.0693 413.137ZM55 177H0L0 377H55V177ZM-100 277V356H100V277H-100Z" fill="white" mask="url(#path-2-inside-1_0_1)"/>
<mask id="path-4-inside-2_0_1" fill="white">
<path d="M55 413L0 492L0 395L55 413Z"/>
</mask>
<path d="M0 492H-100V810.655L82.0693 549.137L0 492ZM55 413L137.069 470.137L213.898 359.784L86.1039 317.96L55 413ZM0 395L31.1039 299.96L-100 257.054V395H0ZM82.0693 549.137L137.069 470.137L-27.0693 355.863L-82.0693 434.863L82.0693 549.137ZM86.1039 317.96L31.1039 299.96L-31.1039 490.04L23.8961 508.04L86.1039 317.96ZM-100 395V492H100V395H-100Z" fill="white" mask="url(#path-4-inside-2_0_1)"/>
<rect width="55" height="322" transform="matrix(-0.817955 -0.575282 0.571871 -0.820344 45 427)" fill="white"/>
<rect y="55" width="55" height="170" transform="rotate(-90 0 55)" fill="white"/>
<path d="M170 27.5C211.73 27.5 251.936 83.2498 205 149.5" stroke="white" stroke-width="55"/>
<rect x="258" y="654" width="55" height="277" transform="rotate(-180 258 654)" fill="white"/>
<mask id="path-10-inside-3_0_1" fill="white">
<path d="M203 377L258 298V377H203Z"/>
</mask>
<path d="M258 298H358L358 -20.6547L175.931 240.863L258 298ZM203 377L120.931 319.863L11.5316 477H203V377ZM258 377V477H358V377H258ZM175.931 240.863L120.931 319.863L285.069 434.137L340.069 355.137L175.931 240.863ZM203 477H258V277H203V477ZM358 377V298H158V377H358Z" fill="white" mask="url(#path-10-inside-3_0_1)"/>
<mask id="path-12-inside-4_0_1" fill="white">
<path d="M203 241L258 162V259L203 241Z"/>
</mask>
<path d="M258 162H358L358 -156.655L175.931 104.863L258 162ZM203 241L120.931 183.863L44.1025 294.216L171.896 336.04L203 241ZM258 259L226.896 354.04L358 396.946V259H258ZM175.931 104.863L120.931 183.863L285.069 298.137L340.069 219.137L175.931 104.863ZM171.896 336.04L226.896 354.04L289.104 163.96L234.104 145.96L171.896 336.04ZM358 259V162H158L158 259H358Z" fill="white" mask="url(#path-12-inside-4_0_1)"/>
<rect width="55" height="322" transform="matrix(0.817955 0.575282 -0.571871 0.820344 213 227)" fill="white"/>
<rect x="258" y="599" width="55" height="170" transform="rotate(90 258 599)" fill="white"/>
<path d="M88 626.5C46.2705 626.5 5.06434 572.25 52 506" stroke="white" stroke-width="55"/>
</svg>
